{"asset":{"version":"2.0","generator":"Blockbench 4.12.2 glTF exporter"},"scenes":[{"nodes":[11],"name":"blockbench_export"}],"scene":0,"nodes":[{"translation":[0,0,0.3125],"name":"sphere","mesh":0},{"translation":[0,0,-0.3125],"name":"sphere","mesh":1},{"translation":[0.3125,0,0],"name":"sphere","mesh":2},{"translation":[-0.3125,0,0],"name":"sphere","mesh":3},{"translation":[0,0.3125,0],"name":"Orbs","children":[0,1,2,3]},{"translation":[3.7389829837770576e-16,0.0015075018695326348,0.28184194874798324],"name":"sphere","mesh":4},{"translation":[3.7389829837770576e-16,0.0015075018695326348,-0.34315805125201676],"name":"sphere","mesh":5},{"translation":[0.31250000000000044,0.0015075018695326348,-0.03065805125201676],"name":"sphere","mesh":6},{"translation":[-0.31249999999999967,0.0015075018695326348,-0.03065805125201676],"name":"sphere","mesh":7},{"rotation":[-0.256282394630355,-0.25628239463035474,0.6590290844890917,0.6590290844890927],"translation":[0,0.25,0],"name":"Orbs2","children":[5,6,7,8]},{"name":"Together","children":[4,9]},{"children":[10]}],"bufferViews":[{"buffer":0,"byteOffset":0,"byteLength":1344,"target":34962,"byteStride":12},{"buffer":0,"byteOffset":1344,"byteLength":1344,"target":34962,"byteStride":12},{"buffer":0,"byteOffset":2688,"byteLength":896,"target":34962,"byteStride":8},{"buffer":0,"byteOffset":3584,"byteLength":288,"target":34963},{"buffer":0,"byteOffset":3872,"byteLength":1344,"target":34962,"byteStride":12},{"buffer":0,"byteOffset":5216,"byteLength":1344,"target":34962,"byteStride":12},{"buffer":0,"byteOffset":6560,"byteLength":896,"target":34962,"byteStride":8},{"buffer":0,"byteOffset":7456,"byteLength":288,"target":34963},{"buffer":0,"byteOffset":7744,"byteLength":1344,"target":34962,"byteStride":12},{"buffer":0,"byteOffset":9088,"byteLength":1344,"target":34962,"byteStride":12},{"buffer":0,"byteOffset":10432,"byteLength":896,"target":34962,"byteStride":8},{"buffer":0,"byteOffset":11328,"byteLength":288,"target":34963},{"buffer":0,"byteOffset":11616,"byteLength":1344,"target":34962,"byteStride":12},{"buffer":0,"byteOffset":12960,"byteLength":1344,"target":34962,"byteStride":12},{"buffer":0,"byteOffset":14304,"byteLength":896,"target":34962,"byteStride":8},{"buffer":0,"byteOffset":15200,"byteLength":288,"target":34963},{"buffer":0,"byteOffset":15488,"byteLength":1344,"target":34962,"byteStride":12},{"buffer":0,"byteOffset":16832,"byteLength":1344,"target":34962,"byteStride":12},{"buffer":0,"byteOffset":18176,"byteLength":896,"target":34962,"byteStride":8},{"buffer":0,"byteOffset":19072,"byteLength":288,"target":34963},{"buffer":0,"byteOffset":19360,"byteLength":1344,"target":34962,"byteStride":12},{"buffer":0,"byteOffset":20704,"byteLength":1344,"target":34962,"byteStride":12},{"buffer":0,"byteOffset":22048,"byteLength":896,"target":34962,"byteStride":8},{"buffer":0,"byteOffset":22944,"byteLength":288,"target":34963},{"buffer":0,"byteOffset":23232,"byteLength":1344,"target":34962,"byteStride":12},{"buffer":0,"byteOffset":24576,"byteLength":1344,"target":34962,"byteStride":12},{"buffer":0,"byteOffset":25920,"byteLength":896,"target":34962,"byteStride":8},{"buffer":0,"byteOffset":26816,"byteLength":288,"target":34963},{"buffer":0,"byteOffset":27104,"byteLength":1344,"target":34962,"byteStride":12},{"buffer":0,"byteOffset":28448,"byteLength":1344,"target":34962,"byteStride":12},{"buffer":0,"byteOffset":29792,"byteLength":896,"target":34962,"byteStride":8},{"buffer":0,"byteOffset":30688,"byteLength":288,"target":34963},{"buffer":0,"byteOffset":30976,"byteLength":208},{"buffer":0,"byteOffset":31184,"byteLength":832},{"buffer":0,"byteOffset":32016,"byteLength":208},{"buffer":0,"byteOffset":32224,"byteLength":624},{"buffer":0,"byteOffset":32848,"byteLength":208},{"buffer":0,"byteOffset":33056,"byteLength":832},{"buffer":0,"byteOffset":33888,"byteLength":208},{"buffer":0,"byteOffset":34096,"byteLength":624}],"buffers":[{"byteLength":34720,"uri":"data:application/octet-stream;base64,"}],"accessors":[{"bufferView":0,"componentType":5126,"count":112,"max":[0.09375,0.09375,0.09375],"min":[-0.09375,-0.09375,-0.09375],"type":"VEC3"},{"bufferView":1,"componentType":5126,"count":112,"max":[0.9238795042037964,0.9238795042037964,0.9238795042037964],"min":[-0.9238795042037964,-0.9238795042037964,-0.9238795042037964],"type":"VEC3"},{"bufferView":2,"componentType":5126,"count":112,"max":[0.509602963924408,0.421875],"min":[0.004860238172113895,0],"type":"VEC2"},{"bufferView":3,"componentType":5123,"count":144,"max":[111],"min":[0],"type":"SCALAR"},{"bufferView":4,"componentType":5126,"count":112,"max":[0.09375,0.09375,0.09375],"min":[-0.09375,-0.09375,-0.09375],"type":"VEC3"},{"bufferView":5,"componentType":5126,"count":112,"max":[0.9238795042037964,0.9238795042037964,0.9238795042037964],"min":[-0.9238795042037964,-0.9238795042037964,-0.9238795042037964],"type":"VEC3"},{"bufferView":6,"componentType":5126,"count":112,"max":[0.509602963924408,0.453125],"min":[0.011834374628961086,0],"type":"VEC2"},{"bufferView":7,"componentType":5123,"count":144,"max":[111],"min":[0],"type":"SCALAR"},{"bufferView":8,"componentType":5126,"count":112,"max":[0.09375,0.09375,0.09375],"min":[-0.09375,-0.09375,-0.09375],"type":"VEC3"},{"bufferView":9,"componentType":5126,"count":112,"max":[0.9238795042037964,0.9238795042037964,0.9238795042037964],"min":[-0.9238795042037964,-0.9238795042037964,-0.9238795042037964],"type":"VEC3"},{"bufferView":10,"componentType":5126,"count":112,"max":[0.509602963924408,0.484375],"min":[0,0.0625],"type":"VEC2"},{"bufferView":11,"componentType":5123,"count":144,"max":[111],"min":[0],"type":"SCALAR"},{"bufferView":12,"componentType":5126,"count":112,"max":[0.09375,0.09375,0.09375],"min":[-0.09375,-0.09375,-0.09375],"type":"VEC3"},{"bufferView":13,"componentType":5126,"count":112,"max":[0.9238795042037964,0.9238795042037964,0.9238795042037964],"min":[-0.9238795042037964,-0.9238795042037964,-0.9238795042037964],"type":"VEC3"},{"bufferView":14,"componentType":5126,"count":112,"max":[0.509602963924408,0.484375],"min":[0.09966718405485153,0.0625],"type":"VEC2"},{"bufferView":15,"componentType":5123,"count":144,"max":[111],"min":[0],"type":"SCALAR"},{"bufferView":16,"componentType":5126,"count":112,"max":[0.09375,0.09375,0.09375],"min":[-0.09375,-0.09375,-0.09375],"type":"VEC3"},{"bufferView":17,"componentType":5126,"count":112,"max":[0.9238795042037964,0.9238795042037964,0.9238795042037964],"min":[-0.9238795042037964,-0.9238795042037964,-0.9238795042037964],"type":"VEC3"},{"bufferView":18,"componentType":5126,"count":112,"max":[0.509602963924408,0.296875],"min":[0,0],"type":"VEC2"},{"bufferView":19,"componentType":5123,"count":144,"max":[111],"min":[0],"type":"SCALAR"},{"bufferView":20,"componentType":5126,"count":112,"max":[0.09375,0.09375,0.09375],"min":[-0.09375,-0.09375,-0.09375],"type":"VEC3"},{"bufferView":21,"componentType":5126,"count":112,"max":[0.9238795042037964,0.9238795042037964,0.9238795042037964],"min":[-0.9238795042037964,-0.9238795042037964,-0.9238795042037964],"type":"VEC3"},{"bufferView":22,"componentType":5126,"count":112,"max":[0.509602963924408,0.328125],"min":[0,0],"type":"VEC2"},{"bufferView":23,"componentType":5123,"count":144,"max":[111],"min":[0],"type":"SCALAR"},{"bufferView":24,"componentType":5126,"count":112,"max":[0.09375,0.09375,0.09375],"min":[-0.09375,-0.09375,-0.09375],"type":"VEC3"},{"bufferView":25,"componentType":5126,"count":112,"max":[0.9238795042037964,0.9238795042037964,0.9238795042037964],"min":[-0.9238795042037964,-0.9238795042037964,-0.9238795042037964],"type":"VEC3"},{"bufferView":26,"componentType":5126,"count":112,"max":[0.509602963924408,0.359375],"min":[0.011834374628961086,0],"type":"VEC2"},{"bufferView":27,"componentType":5123,"count":144,"max":[111],"min":[0],"type":"SCALAR"},{"bufferView":28,"componentType":5126,"count":112,"max":[0.09375,0.09375,0.09375],"min":[-0.09375,-0.09375,-0.09375],"type":"VEC3"},{"bufferView":29,"componentType":5126,"count":112,"max":[0.9238795042037964,0.9238795042037964,0.9238795042037964],"min":[-0.9238795042037964,-0.9238795042037964,-0.9238795042037964],"type":"VEC3"},{"bufferView":30,"componentType":5126,"count":112,"max":[0.509602963924408,0.390625],"min":[0.011834374628961086,0.0625],"type":"VEC2"},{"bufferView":31,"componentType":5123,"count":144,"max":[111],"min":[0],"type":"SCALAR"},{"bufferView":32,"componentType":5126,"count":52,"max":[3],"min":[0],"type":"SCALAR"},{"bufferView":33,"componentType":5126,"count":52,"max":[1,0.49939635396003723,0.49959442019462585,1],"min":[0,-0.49959442019462585,-0.49939635396003723,3.7493993930529855e-33],"type":"VEC4"},{"bufferView":34,"componentType":5126,"count":52,"max":[3],"min":[0],"type":"SCALAR"},{"bufferView":35,"componentType":5126,"count":52,"max":[0.6499999761581421,0.6499999761581421,0.6499999761581421],"min":[0.6000000238418579,0.6000000238418579,0.6000000238418579],"type":"VEC3"},{"bufferView":36,"componentType":5126,"count":52,"max":[3],"min":[0],"type":"SCALAR"},{"bufferView":37,"componentType":5126,"count":52,"max":[0.8483688831329346,0.8483688831329346,0.7423367500305176,0.7423367500305176],"min":[-0.44561347365379333,-0.44561347365379333,0.17297089099884033,0.17297089099884033],"type":"VEC4"},{"bufferView":38,"componentType":5126,"count":52,"max":[3],"min":[0],"type":"SCALAR"},{"bufferView":39,"componentType":5126,"count":52,"max":[0.6499999761581421,0.6499999761581421,0.6499999761581421],"min":[0.6000000238418579,0.6000000238418579,0.6000000238418579],"type":"VEC3"}],"materials":[{"pbrMetallicRoughness":{"metallicFactor":0,"roughnessFactor":1,"baseColorTexture":{"index":0}},"alphaMode":"MASK","alphaCutoff":0.05,"doubleSided":true}],"textures":[{"sampler":0,"source":0,"name":"energyClusterTexture"}],"samplers":[{"magFilter":9728,"minFilter":9728,"wrapS":33071,"wrapT":33071}],"images":[{"mimeType":"image/png","uri":"data:image/png;base64,"}],"meshes":[{"primitives":[{"mode":4,"attributes":{"POSITION":0,"NORMAL":1,"TEXCOORD_0":2},"indices":3,"material":0}]},{"primitives":[{"mode":4,"attributes":{"POSITION":4,"NORMAL":5,"TEXCOORD_0":6},"indices":7,"material":0}]},{"primitives":[{"mode":4,"attributes":{"POSITION":8,"NORMAL":9,"TEXCOORD_0":10},"indices":11,"material":0}]},{"primitives":[{"mode":4,"attributes":{"POSITION":12,"NORMAL":13,"TEXCOORD_0":14},"indices":15,"material":0}]},{"primitives":[{"mode":4,"attributes":{"POSITION":16,"NORMAL":17,"TEXCOORD_0":18},"indices":19,"material":0}]},{"primitives":[{"mode":4,"attributes":{"POSITION":20,"NORMAL":21,"TEXCOORD_0":22},"indices":23,"material":0}]},{"primitives":[{"mode":4,"attributes":{"POSITION":24,"NORMAL":25,"TEXCOORD_0":26},"indices":27,"material":0}]},{"primitives":[{"mode":4,"attributes":{"POSITION":28,"NORMAL":29,"TEXCOORD_0":30},"indices":31,"material":0}]}],"animations":[{"name":"idle","samplers":[{"input":32,"output":33,"interpolation":"LINEAR"},{"input":34,"output":35,"interpolation":"LINEAR"},{"input":36,"output":37,"interpolation":"LINEAR"},{"input":38,"output":39,"interpolation":"LINEAR"}],"channels":[{"sampler":0,"target":{"node":4,"path":"rotation"}},{"sampler":1,"target":{"node":4,"path":"scale"}},{"sampler":2,"target":{"node":9,"path":"rotation"}},{"sampler":3,"target":{"node":9,"path":"scale"}}]}]}