{
  "asset": {
    "generator": "glTF-Transform v4.1.3",
    "version": "2.0"
  },
  "accessors": [
    {
      "type": "SCALAR",
      "componentType": 5126,
      "count": 52,
      "max": [
        3
      ],
      "min": [
        0
      ],
      "bufferView": 0,
      "byteOffset": 0
    },
    {
      "type": "VEC4",
      "componentType": 5126,
      "count": 52,
      "bufferView": 0,
      "byteOffset": 208
    },
    {
      "type": "VEC4",
      "componentType": 5126,
      "count": 52,
      "bufferView": 0,
      "byteOffset": 1040
    },
    {
      "type": "SCALAR",
      "componentType": 5126,
      "count": 9,
      "max": [
        3
      ],
      "min": [
        0
      ],
      "bufferView": 0,
      "byteOffset": 1872
    },
    {
      "type": "VEC3",
      "componentType": 5126,
      "count": 9,
      "bufferView": 0,
      "byteOffset": 1908
    },
    {
      "type": "SCALAR",
      "componentType": 5123,
      "count": 576,
      "bufferView": 1,
      "byteOffset": 0
    },
    {
      "type": "VEC3",
      "componentType": 5126,
      "count": 448,
      "max": [
        0.40625,
        0.09375,
        0.09375
      ],
      "min": [
        -0.40625,
        -0.09375,
        -0.71875
      ],
      "bufferView": 2,
      "byteOffset": 0
    },
    {
      "type": "VEC3",
      "componentType": 5126,
      "count": 448,
      "bufferView": 2,
      "byteOffset": 12
    },
    {
      "type": "VEC2",
      "componentType": 5126,
      "count": 448,
      "bufferView": 2,
      "byteOffset": 24
    },
    {
      "type": "VEC2",
      "componentType": 5126,
      "count": 448,
      "bufferView": 3,
      "byteOffset": 0
    }
  ],
  "bufferViews": [
    {
      "buffer": 0,
      "byteOffset": 0,
      "byteLength": 2016
    },
    {
      "buffer": 0,
      "byteOffset": 2016,
      "byteLength": 1152,
      "target": 34963
    },
    {
      "buffer": 0,
      "byteOffset": 3168,
      "byteLength": 14336,
      "byteStride": 32,
      "target": 34962
    },
    {
      "buffer": 0,
      "byteOffset": 17504,
      "byteLength": 3584,
      "byteStride": 8,
      "target": 34962
    }
  ],
  "samplers": [
    {
      "magFilter": 9728,
      "minFilter": 9728,
      "wrapS": 33071,
      "wrapT": 33071
    }
  ],
  "textures": [
    {
      "source": 0,
      "sampler": 0
    }
  ],
  "images": [
    {
      "mimeType": "image/png",
      "uri": "baseColor.png"
    }
  ],
  "buffers": [
    {
      "uri": "energyCluster.bin",
      "byteLength": 21088
    }
  ],
  "materials": [
    {
      "alphaMode": "MASK",
      "alphaCutoff": 0.05,
      "doubleSided": true,
      "pbrMetallicRoughness": {
        "metallicFactor": 0,
        "baseColorTexture": {
          "index": 0
        }
      }
    }
  ],
  "meshes": [
    {
      "primitives": [
        {
          "attributes": {
            "POSITION": 6,
            "NORMAL": 7,
            "TEXCOORD_0": 8
          },
          "mode": 4,
          "material": 0,
          "indices": 5
        }
      ]
    },
    {
      "primitives": [
        {
          "attributes": {
            "TEXCOORD_0": 9,
            "POSITION": 6,
            "NORMAL": 7
          },
          "mode": 4,
          "material": 0,
          "indices": 5
        }
      ]
    }
  ],
  "nodes": [
    {
      "name": "sphere",
      "translation": [
        0,
        0,
        0.3125
      ],
      "mesh": 0
    },
    {
      "name": "Orbs",
      "translation": [
        0,
        0.3125,
        0
      ],
      "children": [
        0
      ]
    },
    {
      "name": "sphere",
      "translation": [
        3.7389829837770576e-16,
        0.0015075018695326348,
        0.28184194874798324
      ],
      "mesh": 1
    },
    {
      "name": "Orbs2",
      "translation": [
        0,
        0.25,
        0
      ],
      "rotation": [
        -0.256282394630355,
        -0.25628239463035474,
        0.6590290844890917,
        0.6590290844890927
      ],
      "children": [
        2
      ]
    },
    {
      "name": "Together",
      "children": [
        1,
        3
      ]
    }
  ],
  "animations": [
    {
      "name": "idle",
      "samplers": [
        {
          "input": 0,
          "output": 1,
          "interpolation": "LINEAR"
        },
        {
          "input": 3,
          "output": 4,
          "interpolation": "LINEAR"
        },
        {
          "input": 0,
          "output": 2,
          "interpolation": "LINEAR"
        },
        {
          "input": 3,
          "output": 4,
          "interpolation": "LINEAR"
        }
      ],
      "channels": [
        {
          "sampler": 0,
          "target": {
            "node": 1,
            "path": "rotation"
          }
        },
        {
          "sampler": 1,
          "target": {
            "node": 1,
            "path": "scale"
          }
        },
        {
          "sampler": 2,
          "target": {
            "node": 3,
            "path": "rotation"
          }
        },
        {
          "sampler": 3,
          "target": {
            "node": 3,
            "path": "scale"
          }
        }
      ]
    }
  ],
  "scenes": [
    {
      "name": "blockbench_export",
      "nodes": [
        4
      ]
    }
  ],
  "scene": 0
}