{"asset":{"version":"2.0","generator":"Open Asset Import Library (assimp v5.4.0)"},"extensionsUsed":["KHR_materials_volume","FB_ngon_encoding"],"accessors":[{"bufferView":0,"byteOffset":0,"componentType":5126,"count":31795,"type":"VEC3","max":[0.1124134510755539,0.47392672300338745,0.21661481261253357],"min":[-0.11421708762645721,-0.4742060899734497,-0.21598562598228455]},{"bufferView":1,"byteOffset":0,"componentType":5126,"count":31795,"type":"VEC3","max":[0.9999367594718933,1,1],"min":[-0.9998394250869751,-1,-1]},{"bufferView":2,"byteOffset":0,"componentType":5126,"count":31795,"type":"VEC2","max":[0.9999522566795349,0.9999966025352478],"min":[0.00005507475361810066,0.00009942054748535156]},{"bufferView":3,"byteOffset":0,"componentType":5125,"count":133056,"type":"SCALAR","max":[31794],"min":[0]}],"buffers":[{"byteLength":1549664,"uri":"robocop.bin"}],"bufferViews":[{"buffer":0,"byteOffset":0,"byteLength":381540,"target":34962},{"buffer":0,"byteOffset":381540,"byteLength":381540,"target":34962},{"buffer":0,"byteOffset":763080,"byteLength":254360,"target":34962},{"buffer":0,"byteOffset":1017440,"byteLength":532224,"target":34963}],"images":[{"uri":"textures/image_0.png"}],"materials":[{"name":"moopt_robocop","pbrMetallicRoughness":{"baseColorTexture":{"index":0},"metallicFactor":0,"roughnessFactor":0.8999999761581421}}],"meshes":[{"name":"meshes[0]","primitives":[{"mode":4,"material":0,"indices":3,"attributes":{"POSITION":0,"NORMAL":1,"TEXCOORD_0":2}}]}],"nodes":[{"name":"robocop","children":[1]},{"name":"robocop","mesh":0,"extras":{"name":"robocop"}}],"samplers":[{"magFilter":9729,"minFilter":9987}],"scenes":[{"nodes":[0]}],"textures":[{"source":0,"sampler":0}],"scene":0}